<svg width="67" height="67" viewBox="0 0 67 67" fill="none" xmlns="http://www.w3.org/2000/svg">
<g clip-path="url(#clip0)">
<g filter="url(#filter0_d)">
<mask id="path-2-inside-1" fill="white">
<path d="M13.8271 7C11.8509 7 10.0542 7.71868 8.70675 9.06614C7.26949 10.5034 6.55081 12.2999 6.55081 14.1864C6.55081 16.1626 7.35929 17.9593 8.70675 19.3067C10.0542 20.6542 11.9407 21.4627 13.7373 21.3729C13.7373 21.3729 13.8271 21.3729 13.917 21.3729C15.7136 21.3729 17.4204 20.6542 18.7679 19.3067C20.1153 17.9593 20.9238 16.1626 20.9238 14.1864C21.0136 12.2999 20.2051 10.5033 18.8576 9.15583C17.5102 7.71858 15.7135 7 13.8271 7ZM17.5102 18.0492C16.522 19.0373 15.1746 19.6661 13.7373 19.5763C12.3898 19.5763 10.9526 19.0373 9.96441 18.0492C8.88644 17.061 8.34746 15.6237 8.34746 14.1865C8.34746 12.7492 8.88644 11.4018 9.96441 10.3238C10.9526 9.33563 12.3 8.79665 13.8271 8.79665C15.1746 8.79665 16.522 9.33563 17.5102 10.3238C18.5882 11.4018 19.1271 12.7492 19.1271 14.1865C19.1271 15.6237 18.5882 17.061 17.5102 18.0492Z"/>
</mask>
<path d="M13.8271 7C11.8509 7 10.0542 7.71868 8.70675 9.06614C7.26949 10.5034 6.55081 12.2999 6.55081 14.1864C6.55081 16.1626 7.35929 17.9593 8.70675 19.3067C10.0542 20.6542 11.9407 21.4627 13.7373 21.3729C13.7373 21.3729 13.8271 21.3729 13.917 21.3729C15.7136 21.3729 17.4204 20.6542 18.7679 19.3067C20.1153 17.9593 20.9238 16.1626 20.9238 14.1864C21.0136 12.2999 20.2051 10.5033 18.8576 9.15583C17.5102 7.71858 15.7135 7 13.8271 7ZM17.5102 18.0492C16.522 19.0373 15.1746 19.6661 13.7373 19.5763C12.3898 19.5763 10.9526 19.0373 9.96441 18.0492C8.88644 17.061 8.34746 15.6237 8.34746 14.1865C8.34746 12.7492 8.88644 11.4018 9.96441 10.3238C10.9526 9.33563 12.3 8.79665 13.8271 8.79665C15.1746 8.79665 16.522 9.33563 17.5102 10.3238C18.5882 11.4018 19.1271 12.7492 19.1271 14.1865C19.1271 15.6237 18.5882 17.061 17.5102 18.0492Z" fill="white"/>
<path d="M13.7373 21.3729V11.3729H13.4876L13.2381 11.3853L13.7373 21.3729ZM20.9238 14.1864L10.9351 13.7109L10.9238 13.9485V14.1864H20.9238ZM18.8576 9.15583L11.5624 15.9953L11.6726 16.1129L11.7866 16.2269L18.8576 9.15583ZM17.5102 18.0492L10.7528 10.6778L10.5927 10.8245L10.4391 10.9781L17.5102 18.0492ZM13.7373 19.5763L14.3609 9.59579L14.0494 9.57633H13.7373V19.5763ZM9.96441 18.0492L17.0355 10.9781L16.8819 10.8245L16.7218 10.6778L9.96441 18.0492ZM13.8271 -3C9.34399 -3 4.95881 -1.32806 1.63568 1.99507L15.7778 16.1372C15.4969 16.4181 15.1474 16.6506 14.7659 16.8042C14.3887 16.956 14.0584 17 13.8271 17V-3ZM1.63568 1.99507C-1.66485 5.2956 -3.44919 9.63073 -3.44919 14.1864H16.5508C16.5508 14.5262 16.4832 14.9127 16.3241 15.2956C16.1643 15.68 15.9538 15.9612 15.7778 16.1372L1.63568 1.99507ZM-3.44919 14.1864C-3.44919 18.9881 -1.46091 23.2812 1.63568 26.3778L15.7778 12.2357C16.1795 12.6373 16.5508 13.3371 16.5508 14.1864H-3.44919ZM1.63568 26.3778C4.70363 29.4457 9.2481 31.6097 14.2365 31.3604L13.2381 11.3853C13.9935 11.3476 14.5506 11.5029 14.8912 11.6445C15.2358 11.7876 15.5258 11.9837 15.7778 12.2357L1.63568 26.3778ZM13.7373 21.3729C13.7373 31.3729 13.7373 31.3729 13.7373 31.3729C13.7373 31.3729 13.7373 31.3729 13.7373 31.3729C13.7373 31.3729 13.7373 31.3729 13.7373 31.3729C13.7373 31.3729 13.7373 31.3729 13.7373 31.3729C13.7373 31.3729 13.7373 31.3729 13.7373 31.3729C13.7373 31.3729 13.7373 31.3729 13.7373 31.3729C13.7373 31.3729 13.7373 31.3729 13.7374 31.3729C13.7374 31.3729 13.7374 31.3729 13.7374 31.3729C13.7374 31.3729 13.7374 31.3729 13.7374 31.3729C13.7374 31.3729 13.7374 31.3729 13.7374 31.3729C13.7374 31.3729 13.7374 31.3729 13.7374 31.3729C13.7374 31.3729 13.7374 31.3729 13.7374 31.3729C13.7375 31.3729 13.7375 31.3729 13.7375 31.3729C13.7375 31.3729 13.7375 31.3729 13.7375 31.3729C13.7375 31.3729 13.7375 31.3729 13.7375 31.3729C13.7375 31.3729 13.7375 31.3729 13.7376 31.3729C13.7376 31.3729 13.7376 31.3729 13.7376 31.3729C13.7376 31.3729 13.7376 31.3729 13.7376 31.3729C13.7376 31.3729 13.7377 31.3729 13.7377 31.3729C13.7377 31.3729 13.7377 31.3729 13.7377 31.3729C13.7377 31.3729 13.7377 31.3729 13.7377 31.3729C13.7378 31.3729 13.7378 31.3729 13.7378 31.3729C13.7378 31.3729 13.7378 31.3729 13.7378 31.3729C13.7379 31.3729 13.7379 31.3729 13.7379 31.3729C13.7379 31.3729 13.7379 31.3729 13.7379 31.3729C13.7379 31.3729 13.738 31.3729 13.738 31.3729C13.738 31.3729 13.738 31.3729 13.738 31.3729C13.7381 31.3729 13.7381 31.3729 13.7381 31.3729C13.7381 31.3729 13.7381 31.3729 13.7381 31.3729C13.7382 31.3729 13.7382 31.3729 13.7382 31.3729C13.7382 31.3729 13.7382 31.3729 13.7383 31.3729C13.7383 31.3729 13.7383 31.3729 13.7383 31.3729C13.7384 31.3729 13.7384 31.3729 13.7384 31.3729C13.7384 31.3729 13.7384 31.3729 13.7385 31.3729C13.7385 31.3729 13.7385 31.3729 13.7385 31.3729C13.7386 31.3729 13.7386 31.3729 13.7386 31.3729C13.7386 31.3729 13.7386 31.3729 13.7387 31.3729C13.7387 31.3729 13.7387 31.3729 13.7387 31.3729C13.7388 31.3729 13.7388 31.3729 13.7388 31.3729C13.7388 31.3729 13.7389 31.3729 13.7389 31.3729C13.7389 31.3729 13.739 31.3729 13.739 31.3729C13.739 31.3729 13.739 31.3729 13.7391 31.3729C13.7391 31.3729 13.7391 31.3729 13.7391 31.3729C13.7392 31.3729 13.7392 31.3729 13.7392 31.3729C13.7393 31.3729 13.7393 31.3729 13.7393 31.3729C13.7393 31.3729 13.7394 31.3729 13.7394 31.3729C13.7394 31.3729 13.7395 31.3729 13.7395 31.3729C13.7395 31.3729 13.7396 31.3729 13.7396 31.3729C13.7396 31.3729 13.7397 31.3729 13.7397 31.3729C13.7397 31.3729 13.7398 31.3729 13.7398 31.3729C13.7398 31.3729 13.7399 31.3729 13.7399 31.3729C13.7399 31.3729 13.74 31.3729 13.74 31.3729C13.74 31.3729 13.7401 31.3729 13.7401 31.3729C13.7401 31.3729 13.7402 31.3729 13.7402 31.3729C13.7402 31.3729 13.7403 31.3729 13.7403 31.3729C13.7403 31.3729 13.7404 31.3729 13.7404 31.3729C13.7404 31.3729 13.7405 31.3729 13.7405 31.3729C13.7406 31.3729 13.7406 31.3729 13.7406 31.3729C13.7407 31.3729 13.7407 31.3729 13.7407 31.3729C13.7408 31.3729 13.7408 31.3729 13.7409 31.3729C13.7409 31.3729 13.7409 31.3729 13.741 31.3729C13.741 31.3729 13.7411 31.3729 13.7411 31.3729C13.7411 31.3729 13.7412 31.3729 13.7412 31.3729C13.7413 31.3729 13.7413 31.3729 13.7413 31.3729C13.7414 31.3729 13.7414 31.3729 13.7415 31.3729C13.7415 31.3729 13.7415 31.3729 13.7416 31.3729C13.7416 31.3729 13.7417 31.3729 13.7417 31.3729C13.7418 31.3729 13.7418 31.3729 13.7418 31.3729C13.7419 31.3729 13.7419 31.3729 13.742 31.3729C13.742 31.3729 13.7421 31.3729 13.7421 31.3729C13.7422 31.3729 13.7422 31.3729 13.7422 31.3729C13.7423 31.3729 13.7423 31.3729 13.7424 31.3729C13.7424 31.3729 13.7425 31.3729 13.7425 31.3729C13.7426 31.3729 13.7426 31.3729 13.7427 31.3729C13.7427 31.3729 13.7428 31.3729 13.7428 31.3729C13.7428 31.3729 13.7429 31.3729 13.7429 31.3729C13.743 31.3729 13.743 31.3729 13.7431 31.3729C13.7431 31.3729 13.7432 31.3729 13.7432 31.3729C13.7433 31.3729 13.7433 31.3729 13.7434 31.3729C13.7434 31.3729 13.7435 31.3729 13.7435 31.3729C13.7436 31.3729 13.7436 31.3729 13.7437 31.3729C13.7437 31.3729 13.7438 31.3729 13.7438 31.3729C13.7439 31.3729 13.7439 31.3729 13.744 31.3729C13.744 31.3729 13.7441 31.3729 13.7442 31.3729C13.7442 31.3729 13.7443 31.3729 13.7443 31.3729C13.7444 31.3729 13.7444 31.3729 13.7445 31.3729C13.7445 31.3729 13.7446 31.3729 13.7446 31.3729C13.7447 31.3729 13.7447 31.3729 13.7448 31.3729C13.7449 31.3729 13.7449 31.3729 13.745 31.3729C13.745 31.3729 13.7451 31.3729 13.7451 31.3729C13.7452 31.3729 13.7452 31.3729 13.7453 31.3729C13.7454 31.3729 13.7454 31.3729 13.7455 31.3729C13.7455 31.3729 13.7456 31.3729 13.7457 31.3729C13.7457 31.3729 13.7458 31.3729 13.7458 31.3729C13.7459 31.3729 13.7459 31.3729 13.746 31.3729C13.7461 31.3729 13.7461 31.3729 13.7462 31.3729C13.7462 31.3729 13.7463 31.3729 13.7464 31.3729C13.7464 31.3729 13.7465 31.3729 13.7465 31.3729C13.7466 31.3729 13.7467 31.3729 13.7467 31.3729C13.7468 31.3729 13.7468 31.3729 13.7469 31.3729C13.747 31.3729 13.747 31.3729 13.7471 31.3729C13.7472 31.3729 13.7472 31.3729 13.7473 31.3729C13.7473 31.3729 13.7474 31.3729 13.7475 31.3729C13.7475 31.3729 13.7476 31.3729 13.7477 31.3729C13.7477 31.3729 13.7478 31.3729 13.7479 31.3729C13.7479 31.3729 13.748 31.3729 13.7481 31.3729C13.7481 31.3729 13.7482 31.3729 13.7482 31.3729C13.7483 31.3729 13.7484 31.3729 13.7484 31.3729C13.7485 31.3729 13.7486 31.3729 13.7486 31.3729C13.7487 31.3729 13.7488 31.3729 13.7488 31.3729C13.7489 31.3729 13.749 31.3729 13.749 31.3729C13.7491 31.3729 13.7492 31.3729 13.7493 31.3729C13.7493 31.3729 13.7494 31.3729 13.7495 31.3729C13.7495 31.3729 13.7496 31.3729 13.7497 31.3729C13.7497 31.3729 13.7498 31.3729 13.7499 31.3729C13.7499 31.3729 13.75 31.3729 13.7501 31.3729C13.7502 31.3729 13.7502 31.3729 13.7503 31.3729C13.7504 31.3729 13.7504 31.3729 13.7505 31.3729C13.7506 31.3729 13.7507 31.3729 13.7507 31.3729C13.7508 31.3729 13.7509 31.3729 13.7509 31.3729C13.751 31.3729 13.7511 31.3729 13.7512 31.3729C13.7512 31.3729 13.7513 31.3729 13.7514 31.3729C13.7515 31.3729 13.7515 31.3729 13.7516 31.3729C13.7517 31.3729 13.7518 31.3729 13.7518 31.3729C13.7519 31.3729 13.752 31.3729 13.7521 31.3729C13.7521 31.3729 13.7522 31.3729 13.7523 31.3729C13.7524 31.3729 13.7524 31.3729 13.7525 31.3729C13.7526 31.3729 13.7527 31.3729 13.7527 31.3729C13.7528 31.3729 13.7529 31.3729 13.753 31.3729C13.753 31.3729 13.7531 31.3729 13.7532 31.3729C13.7533 31.3729 13.7534 31.3729 13.7534 31.3729C13.7535 31.3729 13.7536 31.3729 13.7537 31.3729C13.7537 31.3729 13.7538 31.3729 13.7539 31.3729C13.754 31.3729 13.7541 31.3729 13.7541 31.3729C13.7542 31.3729 13.7543 31.3729 13.7544 31.3729C13.7545 31.3729 13.7545 31.3729 13.7546 31.3729C13.7547 31.3729 13.7548 31.3729 13.7549 31.3729C13.755 31.3729 13.755 31.3729 13.7551 31.3729C13.7552 31.3729 13.7553 31.3729 13.7554 31.3729C13.7554 31.3729 13.7555 31.3729 13.7556 31.3729C13.7557 31.3729 13.7558 31.3729 13.7559 31.3729C13.7559 31.3729 13.756 31.3729 13.7561 31.3729C13.7562 31.3729 13.7563 31.3729 13.7564 31.3729C13.7564 31.3729 13.7565 31.3729 13.7566 31.3729C13.7567 31.3729 13.7568 31.3729 13.7569 31.3729C13.757 31.3729 13.757 31.3729 13.7571 31.3729C13.7572 31.3729 13.7573 31.3729 13.7574 31.3729C13.7575 31.3729 13.7576 31.3729 13.7576 31.3729C13.7577 31.3729 13.7578 31.3729 13.7579 31.3729C13.758 31.3729 13.7581 31.3729 13.7582 31.3729C13.7583 31.3729 13.7583 31.3729 13.7584 31.3729C13.7585 31.3729 13.7586 31.3729 13.7587 31.3729C13.7588 31.3729 13.7589 31.3729 13.759 31.3729C13.7591 31.3729 13.7591 31.3729 13.7592 31.3729C13.7593 31.3729 13.7594 31.3729 13.7595 31.3729C13.7596 31.3729 13.7597 31.3729 13.7598 31.3729C13.7599 31.3729 13.76 31.3729 13.76 31.3729C13.7601 31.3729 13.7602 31.3729 13.7603 31.3729C13.7604 31.3729 13.7605 31.3729 13.7606 31.3729C13.7607 31.3729 13.7608 31.3729 13.7609 31.3729C13.761 31.3729 13.7611 31.3729 13.7611 31.3729C13.7612 31.3729 13.7613 31.3729 13.7614 31.3729C13.7615 31.3729 13.7616 31.3729 13.7617 31.3729C13.7618 31.3729 13.7619 31.3729 13.762 31.3729C13.7621 31.3729 13.7622 31.3729 13.7623 31.3729C13.7624 31.3729 13.7625 31.3729 13.7626 31.3729C13.7627 31.3729 13.7628 31.3729 13.7628 31.3729C13.7629 31.3729 13.763 31.3729 13.7631 31.3729C13.7632 31.3729 13.7633 31.3729 13.7634 31.3729C13.7635 31.3729 13.7636 31.3729 13.7637 31.3729C13.7638 31.3729 13.7639 31.3729 13.764 31.3729C13.7641 31.3729 13.7642 31.3729 13.7643 31.3729C13.7644 31.3729 13.7645 31.3729 13.7646 31.3729C13.7647 31.3729 13.7648 31.3729 13.7649 31.3729C13.765 31.3729 13.7651 31.3729 13.7652 31.3729C13.7653 31.3729 13.7654 31.3729 13.7655 31.3729C13.7656 31.3729 13.7657 31.3729 13.7658 31.3729C13.7659 31.3729 13.766 31.3729 13.7661 31.3729C13.7662 31.3729 13.7663 31.3729 13.7664 31.3729C13.7665 31.3729 13.7666 31.3729 13.7667 31.3729C13.7668 31.3729 13.7669 31.3729 13.767 31.3729C13.7671 31.3729 13.7672 31.3729 13.7673 31.3729C13.7674 31.3729 13.7675 31.3729 13.7676 31.3729C13.7677 31.3729 13.7678 31.3729 13.7679 31.3729C13.768 31.3729 13.7681 31.3729 13.7682 31.3729C13.7683 31.3729 13.7684 31.3729 13.7686 31.3729C13.7687 31.3729 13.7688 31.3729 13.7689 31.3729C13.769 31.3729 13.7691 31.3729 13.7692 31.3729C13.7693 31.3729 13.7694 31.3729 13.7695 31.3729C13.7696 31.3729 13.7697 31.3729 13.7698 31.3729C13.7699 31.3729 13.77 31.3729 13.7701 31.3729C13.7702 31.3729 13.7703 31.3729 13.7705 31.3729C13.7706 31.3729 13.7707 31.3729 13.7708 31.3729C13.7709 31.3729 13.771 31.3729 13.7711 31.3729C13.7712 31.3729 13.7713 31.3729 13.7714 31.3729C13.7715 31.3729 13.7716 31.3729 13.7717 31.3729C13.7719 31.3729 13.772 31.3729 13.7721 31.3729C13.7722 31.3729 13.7723 31.3729 13.7724 31.3729C13.7725 31.3729 13.7726 31.3729 13.7727 31.3729C13.7728 31.3729 13.7729 31.3729 13.7731 31.3729C13.7732 31.3729 13.7733 31.3729 13.7734 31.3729C13.7735 31.3729 13.7736 31.3729 13.7737 31.3729C13.7738 31.3729 13.7739 31.3729 13.7741 31.3729C13.7742 31.3729 13.7743 31.3729 13.7744 31.3729C13.7745 31.3729 13.7746 31.3729 13.7747 31.3729C13.7748 31.3729 13.775 31.3729 13.7751 31.3729C13.7752 31.3729 13.7753 31.3729 13.7754 31.3729C13.7755 31.3729 13.7756 31.3729 13.7757 31.3729C13.7759 31.3729 13.776 31.3729 13.7761 31.3729C13.7762 31.3729 13.7763 31.3729 13.7764 31.3729C13.7765 31.3729 13.7767 31.3729 13.7768 31.3729C13.7769 31.3729 13.777 31.3729 13.7771 31.3729C13.7772 31.3729 13.7773 31.3729 13.7775 31.3729C13.7776 31.3729 13.7777 31.3729 13.7778 31.3729C13.7779 31.3729 13.778 31.3729 13.7782 31.3729C13.7783 31.3729 13.7784 31.3729 13.7785 31.3729C13.7786 31.3729 13.7787 31.3729 13.7789 31.3729C13.779 31.3729 13.7791 31.3729 13.7792 31.3729C13.7793 31.3729 13.7794 31.3729 13.7796 31.3729C13.7797 31.3729 13.7798 31.3729 13.7799 31.3729C13.78 31.3729 13.7802 31.3729 13.7803 31.3729C13.7804 31.3729 13.7805 31.3729 13.7806 31.3729C13.7808 31.3729 13.7809 31.3729 13.781 31.3729C13.7811 31.3729 13.7812 31.3729 13.7814 31.3729C13.7815 31.3729 13.7816 31.3729 13.7817 31.3729C13.7818 31.3729 13.782 31.3729 13.7821 31.3729C13.7822 31.3729 13.7823 31.3729 13.7824 31.3729C13.7826 31.3729 13.7827 31.3729 13.7828 31.3729C13.7829 31.3729 13.783 31.3729 13.7832 31.3729C13.7833 31.3729 13.7834 31.3729 13.7835 31.3729C13.7837 31.3729 13.7838 31.3729 13.7839 31.3729C13.784 31.3729 13.7841 31.3729 13.7843 31.3729C13.7844 31.3729 13.7845 31.3729 13.7846 31.3729C13.7848 31.3729 13.7849 31.3729 13.785 31.3729C13.7851 31.3729 13.7853 31.3729 13.7854 31.3729C13.7855 31.3729 13.7856 31.3729 13.7858 31.3729C13.7859 31.3729 13.786 31.3729 13.7861 31.3729C13.7863 31.3729 13.7864 31.3729 13.7865 31.3729C13.7866 31.3729 13.7868 31.3729 13.7869 31.3729C13.787 31.3729 13.7871 31.3729 13.7873 31.3729C13.7874 31.3729 13.7875 31.3729 13.7876 31.3729C13.7878 31.3729 13.7879 31.3729 13.788 31.3729C13.7881 31.3729 13.7883 31.3729 13.7884 31.3729C13.7885 31.3729 13.7886 31.3729 13.7888 31.3729C13.7889 31.3729 13.789 31.3729 13.7892 31.3729C13.7893 31.3729 13.7894 31.3729 13.7895 31.3729C13.7897 31.3729 13.7898 31.3729 13.7899 31.3729C13.7901 31.3729 13.7902 31.3729 13.7903 31.3729C13.7904 31.3729 13.7906 31.3729 13.7907 31.3729C13.7908 31.3729 13.791 31.3729 13.7911 31.3729C13.7912 31.3729 13.7913 31.3729 13.7915 31.3729C13.7916 31.3729 13.7917 31.3729 13.7919 31.3729C13.792 31.3729 13.7921 31.3729 13.7923 31.3729C13.7924 31.3729 13.7925 31.3729 13.7926 31.3729C13.7928 31.3729 13.7929 31.3729 13.793 31.3729C13.7932 31.3729 13.7933 31.3729 13.7934 31.3729C13.7936 31.3729 13.7937 31.3729 13.7938 31.3729C13.794 31.3729 13.7941 31.3729 13.7942 31.3729C13.7944 31.3729 13.7945 31.3729 13.7946 31.3729C13.7948 31.3729 13.7949 31.3729 13.795 31.3729C13.7952 31.3729 13.7953 31.3729 13.7954 31.3729C13.7956 31.3729 13.7957 31.3729 13.7958 31.3729C13.796 31.3729 13.7961 31.3729 13.7962 31.3729C13.7964 31.3729 13.7965 31.3729 13.7966 31.3729C13.7968 31.3729 13.7969 31.3729 13.797 31.3729C13.7972 31.3729 13.7973 31.3729 13.7974 31.3729C13.7976 31.3729 13.7977 31.3729 13.7978 31.3729C13.798 31.3729 13.7981 31.3729 13.7982 31.3729C13.7984 31.3729 13.7985 31.3729 13.7987 31.3729C13.7988 31.3729 13.7989 31.3729 13.7991 31.3729C13.7992 31.3729 13.7993 31.3729 13.7995 31.3729C13.7996 31.3729 13.7997 31.3729 13.7999 31.3729C13.8 31.3729 13.8002 31.3729 13.8003 31.3729C13.8004 31.3729 13.8006 31.3729 13.8007 31.3729C13.8008 31.3729 13.801 31.3729 13.8011 31.3729C13.8013 31.3729 13.8014 31.3729 13.8015 31.3729C13.8017 31.3729 13.8018 31.3729 13.8019 31.3729C13.8021 31.3729 13.8022 31.3729 13.8024 31.3729C13.8025 31.3729 13.8026 31.3729 13.8028 31.3729C13.8029 31.3729 13.8031 31.3729 13.8032 31.3729C13.8033 31.3729 13.8035 31.3729 13.8036 31.3729C13.8038 31.3729 13.8039 31.3729 13.804 31.3729C13.8042 31.3729 13.8043 31.3729 13.8045 31.3729C13.8046 31.3729 13.8047 31.3729 13.8049 31.3729C13.805 31.3729 13.8052 31.3729 13.8053 31.3729C13.8054 31.3729 13.8056 31.3729 13.8057 31.3729C13.8059 31.3729 13.806 31.3729 13.8061 31.3729C13.8063 31.3729 13.8064 31.3729 13.8066 31.3729C13.8067 31.3729 13.8069 31.3729 13.807 31.3729C13.8071 31.3729 13.8073 31.3729 13.8074 31.3729C13.8076 31.3729 13.8077 31.3729 13.8079 31.3729C13.808 31.3729 13.8081 31.3729 13.8083 31.3729C13.8084 31.3729 13.8086 31.3729 13.8087 31.3729C13.8089 31.3729 13.809 31.3729 13.8091 31.3729C13.8093 31.3729 13.8094 31.3729 13.8096 31.3729C13.8097 31.3729 13.8099 31.3729 13.81 31.3729C13.8102 31.3729 13.8103 31.3729 13.8104 31.3729C13.8106 31.3729 13.8107 31.3729 13.8109 31.3729C13.811 31.3729 13.8112 31.3729 13.8113 31.3729C13.8115 31.3729 13.8116 31.3729 13.8117 31.3729C13.8119 31.3729 13.812 31.3729 13.8122 31.3729C13.8123 31.3729 13.8125 31.3729 13.8126 31.3729C13.8128 31.3729 13.8129 31.3729 13.8131 31.3729C13.8132 31.3729 13.8133 31.3729 13.8135 31.3729C13.8136 31.3729 13.8138 31.3729 13.8139 31.3729C13.8141 31.3729 13.8142 31.3729 13.8144 31.3729C13.8145 31.3729 13.8147 31.3729 13.8148 31.3729C13.815 31.3729 13.8151 31.3729 13.8153 31.3729C13.8154 31.3729 13.8156 31.3729 13.8157 31.3729C13.8159 31.3729 13.816 31.3729 13.8161 31.3729C13.8163 31.3729 13.8164 31.3729 13.8166 31.3729C13.8167 31.3729 13.8169 31.3729 13.817 31.3729C13.8172 31.3729 13.8173 31.3729 13.8175 31.3729C13.8176 31.3729 13.8178 31.3729 13.8179 31.3729C13.8181 31.3729 13.8182 31.3729 13.8184 31.3729C13.8185 31.3729 13.8187 31.3729 13.8188 31.3729C13.819 31.3729 13.8191 31.3729 13.8193 31.3729C13.8194 31.3729 13.8196 31.3729 13.8197 31.3729C13.8199 31.3729 13.82 31.3729 13.8202 31.3729C13.8203 31.3729 13.8205 31.3729 13.8206 31.3729C13.8208 31.3729 13.8209 31.3729 13.8211 31.3729C13.8212 31.3729 13.8214 31.3729 13.8215 31.3729C13.8217 31.3729 13.8218 31.3729 13.822 31.3729C13.8221 31.3729 13.8223 31.3729 13.8224 31.3729C13.8226 31.3729 13.8228 31.3729 13.8229 31.3729C13.8231 31.3729 13.8232 31.3729 13.8234 31.3729C13.8235 31.3729 13.8237 31.3729 13.8238 31.3729C13.824 31.3729 13.8241 31.3729 13.8243 31.3729C13.8244 31.3729 13.8246 31.3729 13.8247 31.3729C13.8249 31.3729 13.825 31.3729 13.8252 31.3729C13.8253 31.3729 13.8255 31.3729 13.8257 31.3729C13.8258 31.3729 13.826 31.3729 13.8261 31.3729C13.8263 31.3729 13.8264 31.3729 13.8266 31.3729C13.8267 31.3729 13.8269 31.3729 13.827 31.3729C13.8272 31.3729 13.8273 31.3729 13.8275 31.3729C13.8277 31.3729 13.8278 31.3729 13.828 31.3729C13.8281 31.3729 13.8283 31.3729 13.8284 31.3729C13.8286 31.3729 13.8287 31.3729 13.8289 31.3729C13.8291 31.3729 13.8292 31.3729 13.8294 31.3729C13.8295 31.3729 13.8297 31.3729 13.8298 31.3729C13.83 31.3729 13.8301 31.3729 13.8303 31.3729C13.8305 31.3729 13.8306 31.3729 13.8308 31.3729C13.8309 31.3729 13.8311 31.3729 13.8312 31.3729C13.8314 31.3729 13.8315 31.3729 13.8317 31.3729C13.8319 31.3729 13.832 31.3729 13.8322 31.3729C13.8323 31.3729 13.8325 31.3729 13.8326 31.3729C13.8328 31.3729 13.833 31.3729 13.8331 31.3729C13.8333 31.3729 13.8334 31.3729 13.8336 31.3729C13.8337 31.3729 13.8339 31.3729 13.8341 31.3729C13.8342 31.3729 13.8344 31.3729 13.8345 31.3729C13.8347 31.3729 13.8348 31.3729 13.835 31.3729C13.8352 31.3729 13.8353 31.3729 13.8355 31.3729C13.8356 31.3729 13.8358 31.3729 13.836 31.3729C13.8361 31.3729 13.8363 31.3729 13.8364 31.3729C13.8366 31.3729 13.8368 31.3729 13.8369 31.3729C13.8371 31.3729 13.8372 31.3729 13.8374 31.3729C13.8375 31.3729 13.8377 31.3729 13.8379 31.3729C13.838 31.3729 13.8382 31.3729 13.8383 31.3729C13.8385 31.3729 13.8387 31.3729 13.8388 31.3729C13.839 31.3729 13.8391 31.3729 13.8393 31.3729C13.8395 31.3729 13.8396 31.3729 13.8398 31.3729C13.8399 31.3729 13.8401 31.3729 13.8403 31.3729C13.8404 31.3729 13.8406 31.3729 13.8407 31.3729C13.8409 31.3729 13.8411 31.3729 13.8412 31.3729C13.8414 31.3729 13.8416 31.3729 13.8417 31.3729C13.8419 31.3729 13.842 31.3729 13.8422 31.3729C13.8424 31.3729 13.8425 31.3729 13.8427 31.3729C13.8428 31.3729 13.843 31.3729 13.8432 31.3729C13.8433 31.3729 13.8435 31.3729 13.8436 31.3729C13.8438 31.3729 13.844 31.3729 13.8441 31.3729C13.8443 31.3729 13.8445 31.3729 13.8446 31.3729C13.8448 31.3729 13.8449 31.3729 13.8451 31.3729C13.8453 31.3729 13.8454 31.3729 13.8456 31.3729C13.8458 31.3729 13.8459 31.3729 13.8461 31.3729C13.8462 31.3729 13.8464 31.3729 13.8466 31.3729C13.8467 31.3729 13.8469 31.3729 13.8471 31.3729C13.8472 31.3729 13.8474 31.3729 13.8476 31.3729C13.8477 31.3729 13.8479 31.3729 13.848 31.3729C13.8482 31.3729 13.8484 31.3729 13.8485 31.3729C13.8487 31.3729 13.8489 31.3729 13.849 31.3729C13.8492 31.3729 13.8493 31.3729 13.8495 31.3729C13.8497 31.3729 13.8498 31.3729 13.85 31.3729C13.8502 31.3729 13.8503 31.3729 13.8505 31.3729C13.8507 31.3729 13.8508 31.3729 13.851 31.3729C13.8512 31.3729 13.8513 31.3729 13.8515 31.3729C13.8517 31.3729 13.8518 31.3729 13.852 31.3729C13.8521 31.3729 13.8523 31.3729 13.8525 31.3729C13.8526 31.3729 13.8528 31.3729 13.853 31.3729C13.8531 31.3729 13.8533 31.3729 13.8535 31.3729C13.8536 31.3729 13.8538 31.3729 13.854 31.3729C13.8541 31.3729 13.8543 31.3729 13.8545 31.3729C13.8546 31.3729 13.8548 31.3729 13.855 31.3729C13.8551 31.3729 13.8553 31.3729 13.8555 31.3729C13.8556 31.3729 13.8558 31.3729 13.856 31.3729C13.8561 31.3729 13.8563 31.3729 13.8565 31.3729C13.8566 31.3729 13.8568 31.3729 13.857 31.3729C13.8571 31.3729 13.8573 31.3729 13.8575 31.3729C13.8576 31.3729 13.8578 31.3729 13.858 31.3729C13.8581 31.3729 13.8583 31.3729 13.8585 31.3729C13.8586 31.3729 13.8588 31.3729 13.859 31.3729C13.8591 31.3729 13.8593 31.3729 13.8595 31.3729C13.8596 31.3729 13.8598 31.3729 13.86 31.3729C13.8601 31.3729 13.8603 31.3729 13.8605 31.3729C13.8606 31.3729 13.8608 31.3729 13.861 31.3729C13.8611 31.3729 13.8613 31.3729 13.8615 31.3729C13.8616 31.3729 13.8618 31.3729 13.862 31.3729C13.8621 31.3729 13.8623 31.3729 13.8625 31.3729C13.8626 31.3729 13.8628 31.3729 13.863 31.3729C13.8631 31.3729 13.8633 31.3729 13.8635 31.3729C13.8637 31.3729 13.8638 31.3729 13.864 31.3729C13.8642 31.3729 13.8643 31.3729 13.8645 31.3729C13.8647 31.3729 13.8648 31.3729 13.865 31.3729C13.8652 31.3729 13.8653 31.3729 13.8655 31.3729C13.8657 31.3729 13.8658 31.3729 13.866 31.3729C13.8662 31.3729 13.8664 31.3729 13.8665 31.3729C13.8667 31.3729 13.8669 31.3729 13.867 31.3729C13.8672 31.3729 13.8674 31.3729 13.8675 31.3729C13.8677 31.3729 13.8679 31.3729 13.868 31.3729C13.8682 31.3729 13.8684 31.3729 13.8686 31.3729C13.8687 31.3729 13.8689 31.3729 13.8691 31.3729C13.8692 31.3729 13.8694 31.3729 13.8696 31.3729C13.8697 31.3729 13.8699 31.3729 13.8701 31.3729C13.8703 31.3729 13.8704 31.3729 13.8706 31.3729C13.8708 31.3729 13.8709 31.3729 13.8711 31.3729C13.8713 31.3729 13.8714 31.3729 13.8716 31.3729C13.8718 31.3729 13.872 31.3729 13.8721 31.3729C13.8723 31.3729 13.8725 31.3729 13.8726 31.3729C13.8728 31.3729 13.873 31.3729 13.8732 31.3729C13.8733 31.3729 13.8735 31.3729 13.8737 31.3729C13.8738 31.3729 13.874 31.3729 13.8742 31.3729C13.8743 31.3729 13.8745 31.3729 13.8747 31.3729C13.8749 31.3729 13.875 31.3729 13.8752 31.3729C13.8754 31.3729 13.8755 31.3729 13.8757 31.3729C13.8759 31.3729 13.8761 31.3729 13.8762 31.3729C13.8764 31.3729 13.8766 31.3729 13.8767 31.3729C13.8769 31.3729 13.8771 31.3729 13.8773 31.3729C13.8774 31.3729 13.8776 31.3729 13.8778 31.3729C13.878 31.3729 13.8781 31.3729 13.8783 31.3729C13.8785 31.3729 13.8786 31.3729 13.8788 31.3729C13.879 31.3729 13.8792 31.3729 13.8793 31.3729C13.8795 31.3729 13.8797 31.3729 13.8798 31.3729C13.88 31.3729 13.8802 31.3729 13.8804 31.3729C13.8805 31.3729 13.8807 31.3729 13.8809 31.3729C13.881 31.3729 13.8812 31.3729 13.8814 31.3729C13.8816 31.3729 13.8817 31.3729 13.8819 31.3729C13.8821 31.3729 13.8823 31.3729 13.8824 31.3729C13.8826 31.3729 13.8828 31.3729 13.8829 31.3729C13.8831 31.3729 13.8833 31.3729 13.8835 31.3729C13.8836 31.3729 13.8838 31.3729 13.884 31.3729C13.8842 31.3729 13.8843 31.3729 13.8845 31.3729C13.8847 31.3729 13.8848 31.3729 13.885 31.3729C13.8852 31.3729 13.8854 31.3729 13.8855 31.3729C13.8857 31.3729 13.8859 31.3729 13.8861 31.3729C13.8862 31.3729 13.8864 31.3729 13.8866 31.3729C13.8868 31.3729 13.8869 31.3729 13.8871 31.3729C13.8873 31.3729 13.8874 31.3729 13.8876 31.3729C13.8878 31.3729 13.888 31.3729 13.8881 31.3729C13.8883 31.3729 13.8885 31.3729 13.8887 31.3729C13.8888 31.3729 13.889 31.3729 13.8892 31.3729C13.8894 31.3729 13.8895 31.3729 13.8897 31.3729C13.8899 31.3729 13.8901 31.3729 13.8902 31.3729C13.8904 31.3729 13.8906 31.3729 13.8907 31.3729C13.8909 31.3729 13.8911 31.3729 13.8913 31.3729C13.8914 31.3729 13.8916 31.3729 13.8918 31.3729C13.892 31.3729 13.8921 31.3729 13.8923 31.3729C13.8925 31.3729 13.8927 31.3729 13.8928 31.3729C13.893 31.3729 13.8932 31.3729 13.8934 31.3729C13.8935 31.3729 13.8937 31.3729 13.8939 31.3729C13.8941 31.3729 13.8942 31.3729 13.8944 31.3729C13.8946 31.3729 13.8948 31.3729 13.8949 31.3729C13.8951 31.3729 13.8953 31.3729 13.8954 31.3729C13.8956 31.3729 13.8958 31.3729 13.896 31.3729C13.8961 31.3729 13.8963 31.3729 13.8965 31.3729C13.8967 31.3729 13.8968 31.3729 13.897 31.3729C13.8972 31.3729 13.8974 31.3729 13.8975 31.3729C13.8977 31.3729 13.8979 31.3729 13.8981 31.3729C13.8982 31.3729 13.8984 31.3729 13.8986 31.3729C13.8988 31.3729 13.8989 31.3729 13.8991 31.3729C13.8993 31.3729 13.8995 31.3729 13.8996 31.3729C13.8998 31.3729 13.9 31.3729 13.9002 31.3729C13.9003 31.3729 13.9005 31.3729 13.9007 31.3729C13.9009 31.3729 13.901 31.3729 13.9012 31.3729C13.9014 31.3729 13.9016 31.3729 13.9017 31.3729C13.9019 31.3729 13.9021 31.3729 13.9023 31.3729C13.9024 31.3729 13.9026 31.3729 13.9028 31.3729C13.903 31.3729 13.9031 31.3729 13.9033 31.3729C13.9035 31.3729 13.9037 31.3729 13.9038 31.3729C13.904 31.3729 13.9042 31.3729 13.9044 31.3729C13.9045 31.3729 13.9047 31.3729 13.9049 31.3729C13.9051 31.3729 13.9052 31.3729 13.9054 31.3729C13.9056 31.3729 13.9058 31.3729 13.9059 31.3729C13.9061 31.3729 13.9063 31.3729 13.9065 31.3729C13.9066 31.3729 13.9068 31.3729 13.907 31.3729C13.9072 31.3729 13.9073 31.3729 13.9075 31.3729C13.9077 31.3729 13.9079 31.3729 13.908 31.3729C13.9082 31.3729 13.9084 31.3729 13.9086 31.3729C13.9087 31.3729 13.9089 31.3729 13.9091 31.3729C13.9093 31.3729 13.9094 31.3729 13.9096 31.3729C13.9098 31.3729 13.91 31.3729 13.9102 31.3729C13.9103 31.3729 13.9105 31.3729 13.9107 31.3729C13.9109 31.3729 13.911 31.3729 13.9112 31.3729C13.9114 31.3729 13.9116 31.3729 13.9117 31.3729C13.9119 31.3729 13.9121 31.3729 13.9123 31.3729C13.9124 31.3729 13.9126 31.3729 13.9128 31.3729C13.913 31.3729 13.9131 31.3729 13.9133 31.3729C13.9135 31.3729 13.9137 31.3729 13.9138 31.3729C13.914 31.3729 13.9142 31.3729 13.9144 31.3729C13.9145 31.3729 13.9147 31.3729 13.9149 31.3729C13.9151 31.3729 13.9152 31.3729 13.9154 31.3729C13.9156 31.3729 13.9158 31.3729 13.9159 31.3729C13.9161 31.3729 13.9163 31.3729 13.9165 31.3729C13.9166 31.3729 13.9168 31.3729 13.917 31.3729V11.3729C13.9168 11.3729 13.9166 11.3729 13.9165 11.3729C13.9163 11.3729 13.9161 11.3729 13.9159 11.3729C13.9158 11.3729 13.9156 11.3729 13.9154 11.3729C13.9152 11.3729 13.9151 11.3729 13.9149 11.3729C13.9147 11.3729 13.9145 11.3729 13.9144 11.3729C13.9142 11.3729 13.914 11.3729 13.9138 11.3729C13.9137 11.3729 13.9135 11.3729 13.9133 11.3729C13.9131 11.3729 13.913 11.3729 13.9128 11.3729C13.9126 11.3729 13.9124 11.3729 13.9123 11.3729C13.9121 11.3729 13.9119 11.3729 13.9117 11.3729C13.9116 11.3729 13.9114 11.3729 13.9112 11.3729C13.911 11.3729 13.9109 11.3729 13.9107 11.3729C13.9105 11.3729 13.9103 11.3729 13.9102 11.3729C13.91 11.3729 13.9098 11.3729 13.9096 11.3729C13.9094 11.3729 13.9093 11.3729 13.9091 11.3729C13.9089 11.3729 13.9087 11.3729 13.9086 11.3729C13.9084 11.3729 13.9082 11.3729 13.908 11.3729C13.9079 11.3729 13.9077 11.3729 13.9075 11.3729C13.9073 11.3729 13.9072 11.3729 13.907 11.3729C13.9068 11.3729 13.9066 11.3729 13.9065 11.3729C13.9063 11.3729 13.9061 11.3729 13.9059 11.3729C13.9058 11.3729 13.9056 11.3729 13.9054 11.3729C13.9052 11.3729 13.9051 11.3729 13.9049 11.3729C13.9047 11.3729 13.9045 11.3729 13.9044 11.3729C13.9042 11.3729 13.904 11.3729 13.9038 11.3729C13.9037 11.3729 13.9035 11.3729 13.9033 11.3729C13.9031 11.3729 13.903 11.3729 13.9028 11.3729C13.9026 11.3729 13.9024 11.3729 13.9023 11.3729C13.9021 11.3729 13.9019 11.3729 13.9017 11.3729C13.9016 11.3729 13.9014 11.3729 13.9012 11.3729C13.901 11.3729 13.9009 11.3729 13.9007 11.3729C13.9005 11.3729 13.9003 11.3729 13.9002 11.3729C13.9 11.3729 13.8998 11.3729 13.8996 11.3729C13.8995 11.3729 13.8993 11.3729 13.8991 11.3729C13.8989 11.3729 13.8988 11.3729 13.8986 11.3729C13.8984 11.3729 13.8982 11.3729 13.8981 11.3729C13.8979 11.3729 13.8977 11.3729 13.8975 11.3729C13.8974 11.3729 13.8972 11.3729 13.897 11.3729C13.8968 11.3729 13.8967 11.3729 13.8965 11.3729C13.8963 11.3729 13.8961 11.3729 13.896 11.3729C13.8958 11.3729 13.8956 11.3729 13.8954 11.3729C13.8953 11.3729 13.8951 11.3729 13.8949 11.3729C13.8948 11.3729 13.8946 11.3729 13.8944 11.3729C13.8942 11.3729 13.8941 11.3729 13.8939 11.3729C13.8937 11.3729 13.8935 11.3729 13.8934 11.3729C13.8932 11.3729 13.893 11.3729 13.8928 11.3729C13.8927 11.3729 13.8925 11.3729 13.8923 11.3729C13.8921 11.3729 13.892 11.3729 13.8918 11.3729C13.8916 11.3729 13.8914 11.3729 13.8913 11.3729C13.8911 11.3729 13.8909 11.3729 13.8907 11.3729C13.8906 11.3729 13.8904 11.3729 13.8902 11.3729C13.8901 11.3729 13.8899 11.3729 13.8897 11.3729C13.8895 11.3729 13.8894 11.3729 13.8892 11.3729C13.889 11.3729 13.8888 11.3729 13.8887 11.3729C13.8885 11.3729 13.8883 11.3729 13.8881 11.3729C13.888 11.3729 13.8878 11.3729 13.8876 11.3729C13.8874 11.3729 13.8873 11.3729 13.8871 11.3729C13.8869 11.3729 13.8868 11.3729 13.8866 11.3729C13.8864 11.3729 13.8862 11.3729 13.8861 11.3729C13.8859 11.3729 13.8857 11.3729 13.8855 11.3729C13.8854 11.3729 13.8852 11.3729 13.885 11.3729C13.8848 11.3729 13.8847 11.3729 13.8845 11.3729C13.8843 11.3729 13.8842 11.3729 13.884 11.3729C13.8838 11.3729 13.8836 11.3729 13.8835 11.3729C13.8833 11.3729 13.8831 11.3729 13.8829 11.3729C13.8828 11.3729 13.8826 11.3729 13.8824 11.3729C13.8823 11.3729 13.8821 11.3729 13.8819 11.3729C13.8817 11.3729 13.8816 11.3729 13.8814 11.3729C13.8812 11.3729 13.881 11.3729 13.8809 11.3729C13.8807 11.3729 13.8805 11.3729 13.8804 11.3729C13.8802 11.3729 13.88 11.3729 13.8798 11.3729C13.8797 11.3729 13.8795 11.3729 13.8793 11.3729C13.8792 11.3729 13.879 11.3729 13.8788 11.3729C13.8786 11.3729 13.8785 11.3729 13.8783 11.3729C13.8781 11.3729 13.878 11.3729 13.8778 11.3729C13.8776 11.3729 13.8774 11.3729 13.8773 11.3729C13.8771 11.3729 13.8769 11.3729 13.8767 11.3729C13.8766 11.3729 13.8764 11.3729 13.8762 11.3729C13.8761 11.3729 13.8759 11.3729 13.8757 11.3729C13.8755 11.3729 13.8754 11.3729 13.8752 11.3729C13.875 11.3729 13.8749 11.3729 13.8747 11.3729C13.8745 11.3729 13.8743 11.3729 13.8742 11.3729C13.874 11.3729 13.8738 11.3729 13.8737 11.3729C13.8735 11.3729 13.8733 11.3729 13.8732 11.3729C13.873 11.3729 13.8728 11.3729 13.8726 11.3729C13.8725 11.3729 13.8723 11.3729 13.8721 11.3729C13.872 11.3729 13.8718 11.3729 13.8716 11.3729C13.8714 11.3729 13.8713 11.3729 13.8711 11.3729C13.8709 11.3729 13.8708 11.3729 13.8706 11.3729C13.8704 11.3729 13.8703 11.3729 13.8701 11.3729C13.8699 11.3729 13.8697 11.3729 13.8696 11.3729C13.8694 11.3729 13.8692 11.3729 13.8691 11.3729C13.8689 11.3729 13.8687 11.3729 13.8686 11.3729C13.8684 11.3729 13.8682 11.3729 13.868 11.3729C13.8679 11.3729 13.8677 11.3729 13.8675 11.3729C13.8674 11.3729 13.8672 11.3729 13.867 11.3729C13.8669 11.3729 13.8667 11.3729 13.8665 11.3729C13.8664 11.3729 13.8662 11.3729 13.866 11.3729C13.8658 11.3729 13.8657 11.3729 13.8655 11.3729C13.8653 11.3729 13.8652 11.3729 13.865 11.3729C13.8648 11.3729 13.8647 11.3729 13.8645 11.3729C13.8643 11.3729 13.8642 11.3729 13.864 11.3729C13.8638 11.3729 13.8637 11.3729 13.8635 11.3729C13.8633 11.3729 13.8631 11.3729 13.863 11.3729C13.8628 11.3729 13.8626 11.3729 13.8625 11.3729C13.8623 11.3729 13.8621 11.3729 13.862 11.3729C13.8618 11.3729 13.8616 11.3729 13.8615 11.3729C13.8613 11.3729 13.8611 11.3729 13.861 11.3729C13.8608 11.3729 13.8606 11.3729 13.8605 11.3729C13.8603 11.3729 13.8601 11.3729 13.86 11.3729C13.8598 11.3729 13.8596 11.3729 13.8595 11.3729C13.8593 11.3729 13.8591 11.3729 13.859 11.3729C13.8588 11.3729 13.8586 11.3729 13.8585 11.3729C13.8583 11.3729 13.8581 11.3729 13.858 11.3729C13.8578 11.3729 13.8576 11.3729 13.8575 11.3729C13.8573 11.3729 13.8571 11.3729 13.857 11.3729C13.8568 11.3729 13.8566 11.3729 13.8565 11.3729C13.8563 11.3729 13.8561 11.3729 13.856 11.3729C13.8558 11.3729 13.8556 11.3729 13.8555 11.3729C13.8553 11.3729 13.8551 11.3729 13.855 11.3729C13.8548 11.3729 13.8546 11.3729 13.8545 11.3729C13.8543 11.3729 13.8541 11.3729 13.854 11.3729C13.8538 11.3729 13.8536 11.3729 13.8535 11.3729C13.8533 11.3729 13.8531 11.3729 13.853 11.3729C13.8528 11.3729 13.8526 11.3729 13.8525 11.3729C13.8523 11.3729 13.8521 11.3729 13.852 11.3729C13.8518 11.3729 13.8517 11.3729 13.8515 11.3729C13.8513 11.3729 13.8512 11.3729 13.851 11.3729C13.8508 11.3729 13.8507 11.3729 13.8505 11.3729C13.8503 11.3729 13.8502 11.3729 13.85 11.3729C13.8498 11.3729 13.8497 11.3729 13.8495 11.3729C13.8493 11.3729 13.8492 11.3729 13.849 11.3729C13.8489 11.3729 13.8487 11.3729 13.8485 11.3729C13.8484 11.3729 13.8482 11.3729 13.848 11.3729C13.8479 11.3729 13.8477 11.3729 13.8476 11.3729C13.8474 11.3729 13.8472 11.3729 13.8471 11.3729C13.8469 11.3729 13.8467 11.3729 13.8466 11.3729C13.8464 11.3729 13.8462 11.3729 13.8461 11.3729C13.8459 11.3729 13.8458 11.3729 13.8456 11.3729C13.8454 11.3729 13.8453 11.3729 13.8451 11.3729C13.8449 11.3729 13.8448 11.3729 13.8446 11.3729C13.8445 11.3729 13.8443 11.3729 13.8441 11.3729C13.844 11.3729 13.8438 11.3729 13.8436 11.3729C13.8435 11.3729 13.8433 11.3729 13.8432 11.3729C13.843 11.3729 13.8428 11.3729 13.8427 11.3729C13.8425 11.3729 13.8424 11.3729 13.8422 11.3729C13.842 11.3729 13.8419 11.3729 13.8417 11.3729C13.8416 11.3729 13.8414 11.3729 13.8412 11.3729C13.8411 11.3729 13.8409 11.3729 13.8407 11.3729C13.8406 11.3729 13.8404 11.3729 13.8403 11.3729C13.8401 11.3729 13.8399 11.3729 13.8398 11.3729C13.8396 11.3729 13.8395 11.3729 13.8393 11.3729C13.8391 11.3729 13.839 11.3729 13.8388 11.3729C13.8387 11.3729 13.8385 11.3729 13.8383 11.3729C13.8382 11.3729 13.838 11.3729 13.8379 11.3729C13.8377 11.3729 13.8375 11.3729 13.8374 11.3729C13.8372 11.3729 13.8371 11.3729 13.8369 11.3729C13.8368 11.3729 13.8366 11.3729 13.8364 11.3729C13.8363 11.3729 13.8361 11.3729 13.836 11.3729C13.8358 11.3729 13.8356 11.3729 13.8355 11.3729C13.8353 11.3729 13.8352 11.3729 13.835 11.3729C13.8348 11.3729 13.8347 11.3729 13.8345 11.3729C13.8344 11.3729 13.8342 11.3729 13.8341 11.3729C13.8339 11.3729 13.8337 11.3729 13.8336 11.3729C13.8334 11.3729 13.8333 11.3729 13.8331 11.3729C13.833 11.3729 13.8328 11.3729 13.8326 11.3729C13.8325 11.3729 13.8323 11.3729 13.8322 11.3729C13.832 11.3729 13.8319 11.3729 13.8317 11.3729C13.8315 11.3729 13.8314 11.3729 13.8312 11.3729C13.8311 11.3729 13.8309 11.3729 13.8308 11.3729C13.8306 11.3729 13.8305 11.3729 13.8303 11.3729C13.8301 11.3729 13.83 11.3729 13.8298 11.3729C13.8297 11.3729 13.8295 11.3729 13.8294 11.3729C13.8292 11.3729 13.8291 11.3729 13.8289 11.3729C13.8287 11.3729 13.8286 11.3729 13.8284 11.3729C13.8283 11.3729 13.8281 11.3729 13.828 11.3729C13.8278 11.3729 13.8277 11.3729 13.8275 11.3729C13.8273 11.3729 13.8272 11.3729 13.827 11.3729C13.8269 11.3729 13.8267 11.3729 13.8266 11.3729C13.8264 11.3729 13.8263 11.3729 13.8261 11.3729C13.826 11.3729 13.8258 11.3729 13.8257 11.3729C13.8255 11.3729 13.8253 11.3729 13.8252 11.3729C13.825 11.3729 13.8249 11.3729 13.8247 11.3729C13.8246 11.3729 13.8244 11.3729 13.8243 11.3729C13.8241 11.3729 13.824 11.3729 13.8238 11.3729C13.8237 11.3729 13.8235 11.3729 13.8234 11.3729C13.8232 11.3729 13.8231 11.3729 13.8229 11.3729C13.8228 11.3729 13.8226 11.3729 13.8224 11.3729C13.8223 11.3729 13.8221 11.3729 13.822 11.3729C13.8218 11.3729 13.8217 11.3729 13.8215 11.3729C13.8214 11.3729 13.8212 11.3729 13.8211 11.3729C13.8209 11.3729 13.8208 11.3729 13.8206 11.3729C13.8205 11.3729 13.8203 11.3729 13.8202 11.3729C13.82 11.3729 13.8199 11.3729 13.8197 11.3729C13.8196 11.3729 13.8194 11.3729 13.8193 11.3729C13.8191 11.3729 13.819 11.3729 13.8188 11.3729C13.8187 11.3729 13.8185 11.3729 13.8184 11.3729C13.8182 11.3729 13.8181 11.3729 13.8179 11.3729C13.8178 11.3729 13.8176 11.3729 13.8175 11.3729C13.8173 11.3729 13.8172 11.3729 13.817 11.3729C13.8169 11.3729 13.8167 11.3729 13.8166 11.3729C13.8164 11.3729 13.8163 11.3729 13.8161 11.3729C13.816 11.3729 13.8159 11.3729 13.8157 11.3729C13.8156 11.3729 13.8154 11.3729 13.8153 11.3729C13.8151 11.3729 13.815 11.3729 13.8148 11.3729C13.8147 11.3729 13.8145 11.3729 13.8144 11.3729C13.8142 11.3729 13.8141 11.3729 13.8139 11.3729C13.8138 11.3729 13.8136 11.3729 13.8135 11.3729C13.8133 11.3729 13.8132 11.3729 13.8131 11.3729C13.8129 11.3729 13.8128 11.3729 13.8126 11.3729C13.8125 11.3729 13.8123 11.3729 13.8122 11.3729C13.812 11.3729 13.8119 11.3729 13.8117 11.3729C13.8116 11.3729 13.8115 11.3729 13.8113 11.3729C13.8112 11.3729 13.811 11.3729 13.8109 11.3729C13.8107 11.3729 13.8106 11.3729 13.8104 11.3729C13.8103 11.3729 13.8102 11.3729 13.81 11.3729C13.8099 11.3729 13.8097 11.3729 13.8096 11.3729C13.8094 11.3729 13.8093 11.3729 13.8091 11.3729C13.809 11.3729 13.8089 11.3729 13.8087 11.3729C13.8086 11.3729 13.8084 11.3729 13.8083 11.3729C13.8081 11.3729 13.808 11.3729 13.8079 11.3729C13.8077 11.3729 13.8076 11.3729 13.8074 11.3729C13.8073 11.3729 13.8071 11.3729 13.807 11.3729C13.8069 11.3729 13.8067 11.3729 13.8066 11.3729C13.8064 11.3729 13.8063 11.3729 13.8061 11.3729C13.806 11.3729 13.8059 11.3729 13.8057 11.3729C13.8056 11.3729 13.8054 11.3729 13.8053 11.3729C13.8052 11.3729 13.805 11.3729 13.8049 11.3729C13.8047 11.3729 13.8046 11.3729 13.8045 11.3729C13.8043 11.3729 13.8042 11.3729 13.804 11.3729C13.8039 11.3729 13.8038 11.3729 13.8036 11.3729C13.8035 11.3729 13.8033 11.3729 13.8032 11.3729C13.8031 11.3729 13.8029 11.3729 13.8028 11.3729C13.8026 11.3729 13.8025 11.3729 13.8024 11.3729C13.8022 11.3729 13.8021 11.3729 13.8019 11.3729C13.8018 11.3729 13.8017 11.3729 13.8015 11.3729C13.8014 11.3729 13.8013 11.3729 13.8011 11.3729C13.801 11.3729 13.8008 11.3729 13.8007 11.3729C13.8006 11.3729 13.8004 11.3729 13.8003 11.3729C13.8002 11.3729 13.8 11.3729 13.7999 11.3729C13.7997 11.3729 13.7996 11.3729 13.7995 11.3729C13.7993 11.3729 13.7992 11.3729 13.7991 11.3729C13.7989 11.3729 13.7988 11.3729 13.7987 11.3729C13.7985 11.3729 13.7984 11.3729 13.7982 11.3729C13.7981 11.3729 13.798 11.3729 13.7978 11.3729C13.7977 11.3729 13.7976 11.3729 13.7974 11.3729C13.7973 11.3729 13.7972 11.3729 13.797 11.3729C13.7969 11.3729 13.7968 11.3729 13.7966 11.3729C13.7965 11.3729 13.7964 11.3729 13.7962 11.3729C13.7961 11.3729 13.796 11.3729 13.7958 11.3729C13.7957 11.3729 13.7956 11.3729 13.7954 11.3729C13.7953 11.3729 13.7952 11.3729 13.795 11.3729C13.7949 11.3729 13.7948 11.3729 13.7946 11.3729C13.7945 11.3729 13.7944 11.3729 13.7942 11.3729C13.7941 11.3729 13.794 11.3729 13.7938 11.3729C13.7937 11.3729 13.7936 11.3729 13.7934 11.3729C13.7933 11.3729 13.7932 11.3729 13.793 11.3729C13.7929 11.3729 13.7928 11.3729 13.7926 11.3729C13.7925 11.3729 13.7924 11.3729 13.7923 11.3729C13.7921 11.3729 13.792 11.3729 13.7919 11.3729C13.7917 11.3729 13.7916 11.3729 13.7915 11.3729C13.7913 11.3729 13.7912 11.3729 13.7911 11.3729C13.791 11.3729 13.7908 11.3729 13.7907 11.3729C13.7906 11.3729 13.7904 11.3729 13.7903 11.3729C13.7902 11.3729 13.7901 11.3729 13.7899 11.3729C13.7898 11.3729 13.7897 11.3729 13.7895 11.3729C13.7894 11.3729 13.7893 11.3729 13.7892 11.3729C13.789 11.3729 13.7889 11.3729 13.7888 11.3729C13.7886 11.3729 13.7885 11.3729 13.7884 11.3729C13.7883 11.3729 13.7881 11.3729 13.788 11.3729C13.7879 11.3729 13.7878 11.3729 13.7876 11.3729C13.7875 11.3729 13.7874 11.3729 13.7873 11.3729C13.7871 11.3729 13.787 11.3729 13.7869 11.3729C13.7868 11.3729 13.7866 11.3729 13.7865 11.3729C13.7864 11.3729 13.7863 11.3729 13.7861 11.3729C13.786 11.3729 13.7859 11.3729 13.7858 11.3729C13.7856 11.3729 13.7855 11.3729 13.7854 11.3729C13.7853 11.3729 13.7851 11.3729 13.785 11.3729C13.7849 11.3729 13.7848 11.3729 13.7846 11.3729C13.7845 11.3729 13.7844 11.3729 13.7843 11.3729C13.7841 11.3729 13.784 11.3729 13.7839 11.3729C13.7838 11.3729 13.7837 11.3729 13.7835 11.3729C13.7834 11.3729 13.7833 11.3729 13.7832 11.3729C13.783 11.3729 13.7829 11.3729 13.7828 11.3729C13.7827 11.3729 13.7826 11.3729 13.7824 11.3729C13.7823 11.3729 13.7822 11.3729 13.7821 11.3729C13.782 11.3729 13.7818 11.3729 13.7817 11.3729C13.7816 11.3729 13.7815 11.3729 13.7814 11.3729C13.7812 11.3729 13.7811 11.3729 13.781 11.3729C13.7809 11.3729 13.7808 11.3729 13.7806 11.3729C13.7805 11.3729 13.7804 11.3729 13.7803 11.3729C13.7802 11.3729 13.78 11.3729 13.7799 11.3729C13.7798 11.3729 13.7797 11.3729 13.7796 11.3729C13.7794 11.3729 13.7793 11.3729 13.7792 11.3729C13.7791 11.3729 13.779 11.3729 13.7789 11.3729C13.7787 11.3729 13.7786 11.3729 13.7785 11.3729C13.7784 11.3729 13.7783 11.3729 13.7782 11.3729C13.778 11.3729 13.7779 11.3729 13.7778 11.3729C13.7777 11.3729 13.7776 11.3729 13.7775 11.3729C13.7773 11.3729 13.7772 11.3729 13.7771 11.3729C13.777 11.3729 13.7769 11.3729 13.7768 11.3729C13.7767 11.3729 13.7765 11.3729 13.7764 11.3729C13.7763 11.3729 13.7762 11.3729 13.7761 11.3729C13.776 11.3729 13.7759 11.3729 13.7757 11.3729C13.7756 11.3729 13.7755 11.3729 13.7754 11.3729C13.7753 11.3729 13.7752 11.3729 13.7751 11.3729C13.775 11.3729 13.7748 11.3729 13.7747 11.3729C13.7746 11.3729 13.7745 11.3729 13.7744 11.3729C13.7743 11.3729 13.7742 11.3729 13.7741 11.3729C13.7739 11.3729 13.7738 11.3729 13.7737 11.3729C13.7736 11.3729 13.7735 11.3729 13.7734 11.3729C13.7733 11.3729 13.7732 11.3729 13.7731 11.3729C13.7729 11.3729 13.7728 11.3729 13.7727 11.3729C13.7726 11.3729 13.7725 11.3729 13.7724 11.3729C13.7723 11.3729 13.7722 11.3729 13.7721 11.3729C13.772 11.3729 13.7719 11.3729 13.7717 11.3729C13.7716 11.3729 13.7715 11.3729 13.7714 11.3729C13.7713 11.3729 13.7712 11.3729 13.7711 11.3729C13.771 11.3729 13.7709 11.3729 13.7708 11.3729C13.7707 11.3729 13.7706 11.3729 13.7705 11.3729C13.7703 11.3729 13.7702 11.3729 13.7701 11.3729C13.77 11.3729 13.7699 11.3729 13.7698 11.3729C13.7697 11.3729 13.7696 11.3729 13.7695 11.3729C13.7694 11.3729 13.7693 11.3729 13.7692 11.3729C13.7691 11.3729 13.769 11.3729 13.7689 11.3729C13.7688 11.3729 13.7687 11.3729 13.7686 11.3729C13.7684 11.3729 13.7683 11.3729 13.7682 11.3729C13.7681 11.3729 13.768 11.3729 13.7679 11.3729C13.7678 11.3729 13.7677 11.3729 13.7676 11.3729C13.7675 11.3729 13.7674 11.3729 13.7673 11.3729C13.7672 11.3729 13.7671 11.3729 13.767 11.3729C13.7669 11.3729 13.7668 11.3729 13.7667 11.3729C13.7666 11.3729 13.7665 11.3729 13.7664 11.3729C13.7663 11.3729 13.7662 11.3729 13.7661 11.3729C13.766 11.3729 13.7659 11.3729 13.7658 11.3729C13.7657 11.3729 13.7656 11.3729 13.7655 11.3729C13.7654 11.3729 13.7653 11.3729 13.7652 11.3729C13.7651 11.3729 13.765 11.3729 13.7649 11.3729C13.7648 11.3729 13.7647 11.3729 13.7646 11.3729C13.7645 11.3729 13.7644 11.3729 13.7643 11.3729C13.7642 11.3729 13.7641 11.3729 13.764 11.3729C13.7639 11.3729 13.7638 11.3729 13.7637 11.3729C13.7636 11.3729 13.7635 11.3729 13.7634 11.3729C13.7633 11.3729 13.7632 11.3729 13.7631 11.3729C13.763 11.3729 13.7629 11.3729 13.7628 11.3729C13.7628 11.3729 13.7627 11.3729 13.7626 11.3729C13.7625 11.3729 13.7624 11.3729 13.7623 11.3729C13.7622 11.3729 13.7621 11.3729 13.762 11.3729C13.7619 11.3729 13.7618 11.3729 13.7617 11.3729C13.7616 11.3729 13.7615 11.3729 13.7614 11.3729C13.7613 11.3729 13.7612 11.3729 13.7611 11.3729C13.7611 11.3729 13.761 11.3729 13.7609 11.3729C13.7608 11.3729 13.7607 11.3729 13.7606 11.3729C13.7605 11.3729 13.7604 11.3729 13.7603 11.3729C13.7602 11.3729 13.7601 11.3729 13.76 11.3729C13.76 11.3729 13.7599 11.3729 13.7598 11.3729C13.7597 11.3729 13.7596 11.3729 13.7595 11.3729C13.7594 11.3729 13.7593 11.3729 13.7592 11.3729C13.7591 11.3729 13.7591 11.3729 13.759 11.3729C13.7589 11.3729 13.7588 11.3729 13.7587 11.3729C13.7586 11.3729 13.7585 11.3729 13.7584 11.3729C13.7583 11.3729 13.7583 11.3729 13.7582 11.3729C13.7581 11.3729 13.758 11.3729 13.7579 11.3729C13.7578 11.3729 13.7577 11.3729 13.7576 11.3729C13.7576 11.3729 13.7575 11.3729 13.7574 11.3729C13.7573 11.3729 13.7572 11.3729 13.7571 11.3729C13.757 11.3729 13.757 11.3729 13.7569 11.3729C13.7568 11.3729 13.7567 11.3729 13.7566 11.3729C13.7565 11.3729 13.7564 11.3729 13.7564 11.3729C13.7563 11.3729 13.7562 11.3729 13.7561 11.3729C13.756 11.3729 13.7559 11.3729 13.7559 11.3729C13.7558 11.3729 13.7557 11.3729 13.7556 11.3729C13.7555 11.3729 13.7554 11.3729 13.7554 11.3729C13.7553 11.3729 13.7552 11.3729 13.7551 11.3729C13.755 11.3729 13.755 11.3729 13.7549 11.3729C13.7548 11.3729 13.7547 11.3729 13.7546 11.3729C13.7545 11.3729 13.7545 11.3729 13.7544 11.3729C13.7543 11.3729 13.7542 11.3729 13.7541 11.3729C13.7541 11.3729 13.754 11.3729 13.7539 11.3729C13.7538 11.3729 13.7537 11.3729 13.7537 11.3729C13.7536 11.3729 13.7535 11.3729 13.7534 11.3729C13.7534 11.3729 13.7533 11.3729 13.7532 11.3729C13.7531 11.3729 13.753 11.3729 13.753 11.3729C13.7529 11.3729 13.7528 11.3729 13.7527 11.3729C13.7527 11.3729 13.7526 11.3729 13.7525 11.3729C13.7524 11.3729 13.7524 11.3729 13.7523 11.3729C13.7522 11.3729 13.7521 11.3729 13.7521 11.3729C13.752 11.3729 13.7519 11.3729 13.7518 11.3729C13.7518 11.3729 13.7517 11.3729 13.7516 11.3729C13.7515 11.3729 13.7515 11.3729 13.7514 11.3729C13.7513 11.3729 13.7512 11.3729 13.7512 11.3729C13.7511 11.3729 13.751 11.3729 13.7509 11.3729C13.7509 11.3729 13.7508 11.3729 13.7507 11.3729C13.7507 11.3729 13.7506 11.3729 13.7505 11.3729C13.7504 11.3729 13.7504 11.3729 13.7503 11.3729C13.7502 11.3729 13.7502 11.3729 13.7501 11.3729C13.75 11.3729 13.7499 11.3729 13.7499 11.3729C13.7498 11.3729 13.7497 11.3729 13.7497 11.3729C13.7496 11.3729 13.7495 11.3729 13.7495 11.3729C13.7494 11.3729 13.7493 11.3729 13.7493 11.3729C13.7492 11.3729 13.7491 11.3729 13.749 11.3729C13.749 11.3729 13.7489 11.3729 13.7488 11.3729C13.7488 11.3729 13.7487 11.3729 13.7486 11.3729C13.7486 11.3729 13.7485 11.3729 13.7484 11.3729C13.7484 11.3729 13.7483 11.3729 13.7482 11.3729C13.7482 11.3729 13.7481 11.3729 13.7481 11.3729C13.748 11.3729 13.7479 11.3729 13.7479 11.3729C13.7478 11.3729 13.7477 11.3729 13.7477 11.3729C13.7476 11.3729 13.7475 11.3729 13.7475 11.3729C13.7474 11.3729 13.7473 11.3729 13.7473 11.3729C13.7472 11.3729 13.7472 11.3729 13.7471 11.3729C13.747 11.3729 13.747 11.3729 13.7469 11.3729C13.7468 11.3729 13.7468 11.3729 13.7467 11.3729C13.7467 11.3729 13.7466 11.3729 13.7465 11.3729C13.7465 11.3729 13.7464 11.3729 13.7464 11.3729C13.7463 11.3729 13.7462 11.3729 13.7462 11.3729C13.7461 11.3729 13.7461 11.3729 13.746 11.3729C13.7459 11.3729 13.7459 11.3729 13.7458 11.3729C13.7458 11.3729 13.7457 11.3729 13.7457 11.3729C13.7456 11.3729 13.7455 11.3729 13.7455 11.3729C13.7454 11.3729 13.7454 11.3729 13.7453 11.3729C13.7452 11.3729 13.7452 11.3729 13.7451 11.3729C13.7451 11.3729 13.745 11.3729 13.745 11.3729C13.7449 11.3729 13.7449 11.3729 13.7448 11.3729C13.7447 11.3729 13.7447 11.3729 13.7446 11.3729C13.7446 11.3729 13.7445 11.3729 13.7445 11.3729C13.7444 11.3729 13.7444 11.3729 13.7443 11.3729C13.7443 11.3729 13.7442 11.3729 13.7442 11.3729C13.7441 11.3729 13.744 11.3729 13.744 11.3729C13.7439 11.3729 13.7439 11.3729 13.7438 11.3729C13.7438 11.3729 13.7437 11.3729 13.7437 11.3729C13.7436 11.3729 13.7436 11.3729 13.7435 11.3729C13.7435 11.3729 13.7434 11.3729 13.7434 11.3729C13.7433 11.3729 13.7433 11.3729 13.7432 11.3729C13.7432 11.3729 13.7431 11.3729 13.7431 11.3729C13.743 11.3729 13.743 11.3729 13.7429 11.3729C13.7429 11.3729 13.7428 11.3729 13.7428 11.3729C13.7428 11.3729 13.7427 11.3729 13.7427 11.3729C13.7426 11.3729 13.7426 11.3729 13.7425 11.3729C13.7425 11.3729 13.7424 11.3729 13.7424 11.3729C13.7423 11.3729 13.7423 11.3729 13.7422 11.3729C13.7422 11.3729 13.7422 11.3729 13.7421 11.3729C13.7421 11.3729 13.742 11.3729 13.742 11.3729C13.7419 11.3729 13.7419 11.3729 13.7418 11.3729C13.7418 11.3729 13.7418 11.3729 13.7417 11.3729C13.7417 11.3729 13.7416 11.3729 13.7416 11.3729C13.7415 11.3729 13.7415 11.3729 13.7415 11.3729C13.7414 11.3729 13.7414 11.3729 13.7413 11.3729C13.7413 11.3729 13.7413 11.3729 13.7412 11.3729C13.7412 11.3729 13.7411 11.3729 13.7411 11.3729C13.7411 11.3729 13.741 11.3729 13.741 11.3729C13.7409 11.3729 13.7409 11.3729 13.7409 11.3729C13.7408 11.3729 13.7408 11.3729 13.7407 11.3729C13.7407 11.3729 13.7407 11.3729 13.7406 11.3729C13.7406 11.3729 13.7406 11.3729 13.7405 11.3729C13.7405 11.3729 13.7404 11.3729 13.7404 11.3729C13.7404 11.3729 13.7403 11.3729 13.7403 11.3729C13.7403 11.3729 13.7402 11.3729 13.7402 11.3729C13.7402 11.3729 13.7401 11.3729 13.7401 11.3729C13.7401 11.3729 13.74 11.3729 13.74 11.3729C13.74 11.3729 13.7399 11.3729 13.7399 11.3729C13.7399 11.3729 13.7398 11.3729 13.7398 11.3729C13.7398 11.3729 13.7397 11.3729 13.7397 11.3729C13.7397 11.3729 13.7396 11.3729 13.7396 11.3729C13.7396 11.3729 13.7395 11.3729 13.7395 11.3729C13.7395 11.3729 13.7394 11.3729 13.7394 11.3729C13.7394 11.3729 13.7393 11.3729 13.7393 11.3729C13.7393 11.3729 13.7393 11.3729 13.7392 11.3729C13.7392 11.3729 13.7392 11.3729 13.7391 11.3729C13.7391 11.3729 13.7391 11.3729 13.7391 11.3729C13.739 11.3729 13.739 11.3729 13.739 11.3729C13.739 11.3729 13.7389 11.3729 13.7389 11.3729C13.7389 11.3729 13.7388 11.3729 13.7388 11.3729C13.7388 11.3729 13.7388 11.3729 13.7387 11.3729C13.7387 11.3729 13.7387 11.3729 13.7387 11.3729C13.7386 11.3729 13.7386 11.3729 13.7386 11.3729C13.7386 11.3729 13.7386 11.3729 13.7385 11.3729C13.7385 11.3729 13.7385 11.3729 13.7385 11.3729C13.7384 11.3729 13.7384 11.3729 13.7384 11.3729C13.7384 11.3729 13.7384 11.3729 13.7383 11.3729C13.7383 11.3729 13.7383 11.3729 13.7383 11.3729C13.7382 11.3729 13.7382 11.3729 13.7382 11.3729C13.7382 11.3729 13.7382 11.3729 13.7381 11.3729C13.7381 11.3729 13.7381 11.3729 13.7381 11.3729C13.7381 11.3729 13.7381 11.3729 13.738 11.3729C13.738 11.3729 13.738 11.3729 13.738 11.3729C13.738 11.3729 13.7379 11.3729 13.7379 11.3729C13.7379 11.3729 13.7379 11.3729 13.7379 11.3729C13.7379 11.3729 13.7379 11.3729 13.7378 11.3729C13.7378 11.3729 13.7378 11.3729 13.7378 11.3729C13.7378 11.3729 13.7378 11.3729 13.7377 11.3729C13.7377 11.3729 13.7377 11.3729 13.7377 11.3729C13.7377 11.3729 13.7377 11.3729 13.7377 11.3729C13.7377 11.3729 13.7376 11.3729 13.7376 11.3729C13.7376 11.3729 13.7376 11.3729 13.7376 11.3729C13.7376 11.3729 13.7376 11.3729 13.7376 11.3729C13.7375 11.3729 13.7375 11.3729 13.7375 11.3729C13.7375 11.3729 13.7375 11.3729 13.7375 11.3729C13.7375 11.3729 13.7375 11.3729 13.7375 11.3729C13.7375 11.3729 13.7375 11.3729 13.7374 11.3729C13.7374 11.3729 13.7374 11.3729 13.7374 11.3729C13.7374 11.3729 13.7374 11.3729 13.7374 11.3729C13.7374 11.3729 13.7374 11.3729 13.7374 11.3729C13.7374 11.3729 13.7374 11.3729 13.7374 11.3729C13.7374 11.3729 13.7374 11.3729 13.7374 11.3729C13.7373 11.3729 13.7373 11.3729 13.7373 11.3729C13.7373 11.3729 13.7373 11.3729 13.7373 11.3729C13.7373 11.3729 13.7373 11.3729 13.7373 11.3729C13.7373 11.3729 13.7373 11.3729 13.7373 11.3729C13.7373 11.3729 13.7373 11.3729 13.7373 11.3729C13.7373 11.3729 13.7373 11.3729 13.7373 11.3729C13.7373 11.3729 13.7373 11.3729 13.7373 21.3729ZM13.917 31.3729C18.4928 31.3729 22.7078 29.5089 25.8389 26.3778L11.6968 12.2357C11.8927 12.0397 12.1923 11.8147 12.602 11.6407C13.0144 11.4656 13.4676 11.3729 13.917 11.3729V31.3729ZM25.8389 26.3778C28.9355 23.2812 30.9238 18.9881 30.9238 14.1864H10.9238C10.9238 13.3371 11.2951 12.6373 11.6968 12.2357L25.8389 26.3778ZM30.9125 14.6618C31.1561 9.54454 28.953 5.10903 25.9287 2.08476L11.7866 16.2269C11.4572 15.8976 10.8711 15.0553 10.9351 13.7109L30.9125 14.6618ZM26.1529 2.31633C22.8137 -1.24546 18.3259 -3 13.8271 -3V17C13.4959 17 13.0917 16.9354 12.6642 16.7554C12.2288 16.5721 11.8504 16.3025 11.5624 15.9953L26.1529 2.31633ZM10.4391 10.9781C11.0811 10.3361 12.4164 9.47431 14.3609 9.59579L13.1137 29.5569C17.9327 29.8579 21.9629 27.7386 24.5813 25.1202L10.4391 10.9781ZM13.7373 9.57633C14.367 9.57633 14.9193 9.69598 15.4025 9.88757C15.8881 10.0802 16.4698 10.4125 17.0355 10.9781L2.89334 25.1202C5.90876 28.1357 9.96047 29.5763 13.7373 29.5763V9.57633ZM16.7218 10.6778C18.0018 11.8511 18.3475 13.2427 18.3475 14.1865H-1.65254C-1.65254 18.0048 -0.228926 22.2708 3.20704 25.4206L16.7218 10.6778ZM18.3475 14.1865C18.3475 14.7323 18.2419 15.3397 17.9919 15.944C17.7411 16.55 17.3926 17.0377 17.0355 17.3949L2.89334 3.25274C-0.0636229 6.20971 -1.65254 10.1022 -1.65254 14.1865H18.3475ZM17.0355 17.3949C15.9964 18.4339 14.7294 18.7966 13.8271 18.7966V-1.20335C9.87067 -1.20335 5.90876 0.237324 2.89334 3.25274L17.0355 17.3949ZM13.8271 18.7966C12.5657 18.7966 11.3567 18.3124 10.4391 17.3949L24.5813 3.25274C21.6873 0.358829 17.7835 -1.20335 13.8271 -1.20335V18.7966ZM10.4391 17.3949C10.082 17.0377 9.73352 16.55 9.48274 15.944C9.23271 15.3397 9.12714 14.7323 9.12714 14.1865H29.1271C29.1271 10.1022 27.5382 6.20971 24.5813 3.25274L10.4391 17.3949ZM9.12714 14.1865C9.12714 13.2427 9.47278 11.8512 10.7528 10.6778L24.2676 25.4206C27.7035 22.2708 29.1271 18.0048 29.1271 14.1865H9.12714Z" fill="white" mask="url(#path-2-inside-1)"/>
</g>
<g filter="url(#filter1_d)">
<path d="M17.3305 23.1695H10.0542C8.61695 23.1695 7.44909 24.3373 7.44909 25.8644V57.3052C7.44909 58.7425 8.70675 60.0001 10.144 60.0001H17.3305C18.7678 60.0001 20.0254 58.7425 20.0254 57.395V25.8644C20.0254 24.4271 18.7678 23.1695 17.3305 23.1695ZM18.2288 57.395C18.2288 57.8442 17.7796 58.2035 17.3305 58.2035H10.144C9.69482 58.2035 9.24573 57.7543 9.24573 57.3052V25.8644C9.24573 25.4153 9.60502 24.9662 10.0542 24.9662H17.3305C17.7797 24.9662 18.2288 25.4154 18.2288 25.8644V57.395Z" fill="white"/>
</g>
<path d="M47.8729 22.2711H45.9864C42.483 22.2711 39.1593 23.7983 37.0034 26.2237V24.9661C37.0034 24.0678 36.1051 23.1694 35.2068 23.1694H26.2237C25.4153 23.1694 24.4271 23.8881 24.4271 24.8762V58.383C24.4271 59.3711 25.4153 59.9999 26.2237 59.9999H36.1051C36.9136 59.9999 37.9018 59.3711 37.9018 58.383V38.9795C37.9018 36.0151 40.0577 33.6795 42.8424 33.6795C44.2797 33.6795 45.6272 34.2185 46.6153 35.2067C47.5136 36.0151 47.873 37.2728 47.873 38.8897V58.2034C47.873 59.1016 48.7713 60 49.6696 60H58.6527C59.5509 60 60.4493 59.1017 60.4493 58.2034V35.0271C60.4492 27.8407 54.9696 22.2711 47.8729 22.2711ZM58.6526 58.1136L58.5628 58.2034H49.7593L49.6695 38.8899C49.6695 36.7339 49.1306 35.117 47.9628 33.9492C46.6153 32.6017 44.8187 31.8831 42.9322 31.8831C39.1593 31.9729 36.1949 35.0272 36.1949 38.9796V58.2034H26.3135V24.9661H35.2068L35.2966 25.0559V30.7152L37.722 28.2898L37.8118 28.2C39.6084 25.6847 42.7524 24.0678 46.0762 24.0678H47.9627C53.9813 24.0678 58.6526 28.9187 58.6526 35.0272V58.1136V58.1136Z" fill="white"/>
</g>
<rect x="1" y="1" width="65" height="65" rx="4" stroke="white" stroke-width="2"/>
<defs>
<filter id="filter0_d" x="-13.4492" y="-13" width="54.3798" height="54.3797" filterUnits="userSpaceOnUse" color-interpolation-filters="sRGB">
<feFlood flood-opacity="0" result="BackgroundImageFix"/>
<feColorMatrix in="SourceAlpha" type="matrix" values="0 0 0 0 0 0 0 0 0 0 0 0 0 0 0 0 0 0 127 0"/>
<feOffset/>
<feGaussianBlur stdDeviation="10"/>
<feColorMatrix type="matrix" values="0 0 0 0 0.772549 0 0 0 0 0.294118 0 0 0 0 0.972549 0 0 0 1 0"/>
<feBlend mode="hard-light" in2="BackgroundImageFix" result="effect1_dropShadow"/>
<feBlend mode="normal" in="SourceGraphic" in2="effect1_dropShadow" result="shape"/>
</filter>
<filter id="filter1_d" x="-12.5509" y="7.16953" width="52.5763" height="76.8306" filterUnits="userSpaceOnUse" color-interpolation-filters="sRGB">
<feFlood flood-opacity="0" result="BackgroundImageFix"/>
<feColorMatrix in="SourceAlpha" type="matrix" values="0 0 0 0 0 0 0 0 0 0 0 0 0 0 0 0 0 0 127 0"/>
<feOffset dy="4"/>
<feGaussianBlur stdDeviation="10"/>
<feColorMatrix type="matrix" values="0 0 0 0 0 0 0 0 0 0 0 0 0 0 0 0 0 0 0.25 0"/>
<feBlend mode="normal" in2="BackgroundImageFix" result="effect1_dropShadow"/>
<feBlend mode="normal" in="SourceGraphic" in2="effect1_dropShadow" result="shape"/>
</filter>
<clipPath id="clip0">
</clipPath>
</defs>
</svg>
